PathFileType	4	(X/Y/Z)	Patient4_TMGait_0pt2_02_right_08.trc.trc
DataRate	CameraRate	NumFrames	NumMarkers	Units	OrigDataRate	OrigDataStartFrame	OrigNumFrames
43.343653250774	43.343653250774	6	33	mm	43.343653250774	71	       141
Frame#	Time	R.Midfoot.Superior			Sacral			L.Shoulder			Chest			R.Shoulder			Neck			R.ASIS			L.ASIS			R.Thigh.Superior			R.Thigh.Lateral			R.Thigh.Inferior			R.Patella			L.Thigh.Superior			L.Thigh.Lateral			L.Thigh.Inferior			L.Patella			L.Shank.Superior			L.Shank.Lateral			L.Shank.Inferior			R.Shank.Superior			R.Shank.Lateral			R.Shank.Inferior			R.Heel			R.Midfoot.Lateral			R.Toe			L.Heel			L.Midfoot.Lateral			L.Midfoot.Superior			L.Toe			L.Elbow			L.Wrist			R.Elbow			R.Wrist			
		X1	Y1	Z1	X2	Y2	Z2	X3	Y3	Z3	X4	Y4	Z4	X5	Y5	Z5	X6	Y6	Z6	X7	Y7	Z7	X8	Y8	Z8	X9	Y9	Z9	X10	Y10	Z10	X11	Y11	Z11	X12	Y12	Z12	X13	Y13	Z13	X14	Y14	Z14	X15	Y15	Z15	X16	Y16	Z16	X17	Y17	Z17	X18	Y18	Z18	X19	Y19	Z19	X20	Y20	Z20	X21	Y21	Z21	X22	Y22	Z22	X23	Y23	Z23	X24	Y24	Z24	X25	Y25	Z25	X26	Y26	Z26	X27	Y27	Z27	X28	Y28	Z28	X29	Y29	Z29	X30	Y30	Z30	X31	Y31	Z31	X32	Y32	Z32	X33	Y33	Z33	

71	18.485000000000	969.090587339481	95.658751586241	599.888379721862	851.202235484213	1002.385760707967	610.826019016423	964.671128937220	1417.337338978250	366.312999903941	1116.618969364812	1347.858229645175	482.011489325175	1107.357173260093	1434.363786040773	667.639496820011	1007.769504596188	1483.734571255203	514.042302521046	1101.142188205014	926.253163158655	655.264004704389	1010.065281113286	954.783259775313	396.334831090017	1111.408856023633	720.237492935040	607.453332211263	1037.362357159864	611.154082077152	680.558999754878	1083.611403180104	559.471544396140	579.636618051388	1074.863355952683	466.410026739086	581.887543378435	1091.542483765822	768.382539252923	411.527776861963	1028.685724856378	639.053429952094	345.820044427926	1136.104741283792	579.491490621454	395.456938295179	1156.386616123908	513.047651850243	390.989451851556	1138.521026221184	441.807368901778	377.367152830615	1065.014901071434	317.655855207856	321.907544760977	1149.832376574489	211.797679300232	367.138240971152	1028.083150862701	382.866648160850	593.813558901712	953.187139434663	290.245370580813	668.436697255499	958.068664921092	195.179933985280	596.225466592865	792.956043636050	44.999876623290	591.315116363549	886.470301739432	36.885918654545	651.738870725502	1090.938128205619	41.583026966266	609.654364757003	1052.692743130303	47.032831514529	402.622255156552	1124.926068361997	40.950567852431	321.502145258126	1208.043863394979	104.783090322182	341.605882635802	1334.125966866358	54.751980912910	312.678096707843	776.554178472801	1112.247387737307	344.744851869239	721.087099788417	867.936954545737	425.596667563280	1331.554846828386	1190.272362454657	764.605401486622	1497.230877299258	1318.905915169846	625.855863734344	
72	18.508071428571	964.549051846227	95.670869277434	599.741301302712	851.984518707517	1001.874265071604	607.167523194657	964.624409815087	1416.222950104248	361.567723299462	1116.883435539920	1347.072554533310	477.085605780337	1107.932100308302	1433.798214966351	662.531921972371	1007.904822228045	1482.998466046093	509.102168780866	1102.149723362295	925.743701132736	651.609377509064	1010.650109456799	953.658404458606	392.776609105063	1111.311407770293	719.227094988915	604.421728573988	1036.602747722613	610.733485541690	678.024286491860	1082.185768400950	558.381160014287	577.252262313665	1072.632017172012	465.274577159487	579.873161617999	1091.998165922176	766.354233294704	408.437993454744	1027.330478042006	637.199004894100	344.158815449290	1134.475909523261	577.237606993476	393.543679942229	1153.477071667105	510.321101194520	389.778909722533	1135.490529780204	439.075272338759	376.219177799241	1061.037782975351	315.386124442693	321.449558264433	1144.757570002990	209.114234973112	367.331528887519	1025.279980666588	382.100835575239	592.222684033535	949.785142659424	290.300408478254	667.315007752005	954.153951247384	194.901480759981	595.581847831448	788.330180998753	45.101928879502	591.228171020235	881.815183123952	36.938805396369	651.660849297208	1086.284650047387	41.567120130954	609.694290581050	1046.133968943502	44.859481968232	402.769165918937	1118.442699565091	39.755818739091	321.523102165718	1201.646424294029	102.996122114888	342.688063511193	1327.766430193843	53.107169334999	313.230274305660	777.823767015008	1110.117696712137	340.275119719463	722.991191607908	865.519124056854	420.504618696664	1333.727354477086	1190.791305915192	757.087513612965	1496.670465323634	1321.077496879575	616.734096783822	
73	18.531142857143	960.018053054818	95.698429927409	599.590644342670	852.849977463599	1001.575181530930	603.258943550862	964.855883399833	1415.269659238164	356.590196444074	1117.383948543011	1346.420142360725	471.981201554387	1108.678835618173	1433.377651158654	657.250019368434	1008.237035658391	1482.414442540063	503.943478925384	1103.202335690255	925.318272204337	647.668608973912	1011.320377309134	952.768722538839	388.968860081632	1111.194260553717	718.267940260435	601.171571087940	1035.743827852946	610.432856686184	675.292341730854	1080.631536146772	557.368589904933	574.710522381788	1070.272860605811	464.261236790518	577.731786653534	1092.605401008517	764.680340822663	405.150091780543	1026.265263601731	635.684867097718	342.244238755421	1133.137335124799	575.340298994441	391.429976953561	1150.942833842487	507.951996926028	388.359131028471	1132.783273119497	436.616644048189	374.932296957187	1057.308753903393	313.395355907844	320.834916779255	1139.772586885010	206.617711599920	367.500876061944	1022.371287418268	381.468103059411	590.529705429137	946.321925506255	290.494903356535	666.134970640351	950.192518645830	194.727016577094	594.904045053207	783.717339911701	45.290258447133	591.130325649523	877.173057649315	37.039230880013	651.568958640061	1081.640074572166	41.528295173139	609.735113499370	1039.495598030713	42.816371197066	402.863280630619	1111.915675370863	38.682088958833	321.508667481669	1195.154481258860	101.446041654978	343.729290830885	1321.402238280446	51.785989087718	313.825153513032	779.574628698530	1108.039037255337	334.785652319012	725.474510784949	862.955342647862	413.721539869328	1335.466179420109	1190.887469160053	749.815266381248	1496.817132310507	1321.845765083607	608.341146647768	
74	18.554214285714	955.504372654913	95.748555333284	599.445709509031	853.768642327863	1001.551219782793	599.116650523940	965.339560029803	1414.576095861946	351.466681962357	1118.104240505947	1345.958817701578	466.744993680039	1109.627115657237	1433.134773837510	651.854808231725	1008.774779705218	1482.045960095791	498.658822663620	1104.245486627175	925.019747203605	643.427678735516	1012.021835570159	952.194136444679	384.893786216004	1110.948417498265	717.400303535426	597.729792436673	1034.666624202967	610.316705633330	672.412485714161	1078.833233327975	556.480790206922	572.072774537284	1067.675522702017	463.435827322735	575.535175402062	1093.283423170862	763.465743088724	401.660115449659	1025.485611798265	634.578764202262	340.019577229882	1132.088990754195	573.883754549303	389.062907741991	1148.818573787494	506.049836893398	386.676367978425	1130.461708158248	434.552949034604	373.461831129646	1053.983058586703	311.768203257534	320.000830448798	1135.097871741504	204.461242054589	367.574181448163	1019.277675167184	381.029696452269	588.793667317343	942.736994060800	290.863935996640	664.936159953792	946.157999723611	194.694357549408	594.217600484217	779.122983894179	45.595026595960	591.026150550836	872.548981305591	37.205672939526	651.466969982142	1077.007747001096	41.458046887233	609.776459879374	1033.117221605697	41.060239638537	402.897759138664	1105.660759943774	37.789814368154	321.451079544479	1188.889227782008	100.207859535134	344.623671307603	1315.324198660949	50.815879671669	314.379828796875	781.696804273281	1106.184649240606	328.398867808676	728.462791119799	860.419776810176	405.395573477997	1336.903245172506	1190.671938038346	742.788653424146	1497.671418994145	1321.468924288882	600.569619400646	
75	18.577285714286	951.018062574787	95.828455624025	599.315003942263	854.706622778103	1001.821308775173	594.741836227386	966.045578566768	1414.206944679579	346.278872275838	1119.015705109294	1345.718724506586	461.432577272448	1110.772861141264	1433.068252827846	646.417648708685	1009.512045736231	1481.924946054797	493.341399013228	1105.226514870287	924.872172607564	638.892104778511	1012.723572262390	951.964878534588	380.539529961887	1110.495431423881	716.653963094630	594.136276396198	1033.295622000122	610.427211452062	669.436650101611	1076.732038108283	555.750774572671	569.399682080223	1064.790611445708	462.839614442727	573.349223233138	1093.976289304196	762.755994252760	397.979973727269	1024.988805965083	633.890959137124	337.459217750579	1131.326897911256	572.887358807507	386.421829025832	1147.119499273716	504.643678916216	384.712245002353	1128.547305241224	432.930133481633	371.792752779734	1051.128769266801	310.540981981798	318.921279754784	1130.837163132944	202.723641794957	367.509908860232	1015.966157528324	380.821683261439	587.066256448796	939.004321103095	291.428363803823	663.750204185784	942.046268849039	194.827957133160	593.543320303212	774.554734177321	46.049024994040	590.922009377174	867.949354436174	37.458386090576	651.360270496215	1072.391324726166	41.348085736549	609.817767304627	1027.179250680652	39.684169957595	402.879424775376	1099.837402678346	37.108832142076	321.354357032710	1183.026029574183	99.300715248938	345.312215768743	1309.673721932146	50.164688449864	314.836027502083	784.078257766471	1104.690568213343	321.256004383545	731.884450222013	858.059377072109	395.718476367156	1338.146783999839	1190.238984977327	736.000910865400	1499.175688585235	1320.196794574890	593.317861537317	
76	18.600357142857	946.572205611849	95.945349321933	599.204892222433	855.628685069932	1002.361533235804	590.124199960002	966.943723836653	1414.188125491464	341.094818883960	1120.080436649521	1345.703037922286	456.104410140504	1112.074594707836	1433.148406905354	641.014412196060	1010.426909446796	1482.051229222875	488.074620593808	1106.101439570791	924.879237485932	634.089317392293	1013.420744464863	952.061659367856	375.907502870885	1109.800843332647	716.046037612575	590.439144926404	1031.609683985555	610.778791098996	666.410655578870	1074.336074462547	555.194307126309	566.742347222722	1061.636745264993	462.485127276838	571.223164869894	1094.650749118444	762.525672333717	394.130475789204	1024.755176798193	633.575595784244	334.567339363205	1130.828318432956	572.307349699669	383.517909625119	1145.829508982612	503.690715433882	382.479944510734	1127.017117643910	431.725466965675	369.934406980057	1048.734811215568	309.697500447176	317.603509601236	1126.997119945623	201.410825323540	367.294020140600	1012.455894338414	380.851700579711	585.383345896531	935.137377688323	292.193704216634	662.596109990668	937.877029574515	195.137395326544	592.894117093353	770.022201722825	46.686549066785	590.825371439827	863.381773743433	37.818650525904	651.255137104708	1067.794409672360	41.191606167419	609.858109246423	1021.731658597107	38.713766436645	402.822702746350	1094.480926656088	36.638522897313	321.229558381937	1177.619343923579	98.697789757596	345.780335438053	1304.476031729626	49.762767795408	315.164685255215	786.615889963412	1103.644715018068	313.502073765614	735.674741361079	855.983366179781	384.910000171978	1339.266484570255	1189.657325902650	729.443208122934	1501.227729990927	1318.255081659133	586.507671810710	
